<?xml version="1.0" encoding="utf-8"?>
<!-- Generator: Adobe Illustrator 28.1.0, SVG Export Plug-In . SVG Version: 6.00 Build 0)  -->
<svg version="1.1" id="Layer_1" xmlns="http://www.w3.org/2000/svg" xmlns:xlink="http://www.w3.org/1999/xlink" x="0px" y="0px"
	 viewBox="0 0 2834.65 1700.79" style="enable-background:new 0 0 2834.65 1700.79;" xml:space="preserve">
<g>
	<g>
		<g>
			<rect x="712.97" y="713.14" width="18.85" height="164.04"/>
			<polygon points="482.2,713.14 464.14,713.14 464.14,877.18 551.64,877.18 551.64,860.71 482.2,860.71 			"/>
			<polygon points="1741.26,877.18 1826.84,877.18 1826.84,860.71 1759.32,860.71 1759.32,796.35 1824.49,796.35 1824.49,779.09 
				1759.32,779.09 1759.32,729.63 1826.84,729.63 1826.84,713.14 1741.26,713.14 			"/>
			<polygon points="1010.21,844.61 922.56,713.14 904.84,713.14 904.84,877.18 922.9,877.18 922.9,746.21 1010.21,877.18 
				1028.26,877.18 1028.26,713.65 1010.21,713.65 			"/>
			<path d="M1286.28,731.5c-9.07-8.08-20.2-13.47-32.15-15.6c-10.23-1.83-20.61-2.75-31.01-2.75h-23.77v164.04h26.49
				c11.25,0,22.48-1.44,33.36-4.3c3.71-0.97,7.34-2.34,10.77-4.05c27.82-13.9,45.4-42.32,45.4-73.42c0-7.06-0.91-14.11-2.72-20.95
				C1308.29,757.86,1299.11,742.9,1286.28,731.5z M1295.51,804.43c-3.72,28.88-26.47,51.63-55.38,55.33
				c-4.92,0.63-9.87,0.95-14.83,0.95h-7.88V729.63c1.84-0.08,3.71-0.13,5.57-0.13c9.54,0,19.09,1.1,28.41,3.27
				c7.21,1.68,13.92,5,19.61,9.72c15.87,13.08,25.06,32.59,25.06,53.15C1296.06,798.58,1295.88,801.5,1295.51,804.43z"/>
			<path d="M1566.47,811.92c-4.73-11.39-14.68-19.78-26.73-22.49c6.85-3.28,12.27-8.93,15.24-15.91c2.25-5.3,3.4-10.97,3.4-16.72
				c0-14.63-7.46-28.23-19.81-36.06c-7.85-4.96-16.95-7.61-26.24-7.61c-0.44,0-0.88,0-1.32,0.01h-10.21h-27.47v164.04h38.47
				c10.25-0.01,20.42-1.55,30.21-4.59c17.16-5.34,28.86-21.22,28.86-39.19c0-0.45-0.03-0.92-0.03-1.39
				C1570.6,825.11,1569.14,818.29,1566.47,811.92z M1492.18,729.64h7.08v-0.01c1.04-0.03,2.11-0.04,3.17-0.04
				c5.16,0,10.32,0.31,15.46,0.95c9.87,1.22,18.05,8.25,20.71,17.85c0.83,2.97,1.25,6.03,1.25,9.1c0,4.25-0.81,8.45-2.35,12.4
				c-2.09,5.32-6.28,9.51-11.58,11.6c-6.27,2.56-12.97,3.87-19.75,3.87h-13.99V729.64z M1534.68,856.37
				c-6.95,2.85-14.37,4.34-21.88,4.34h-20.62v-59.66h15.69c1.35-0.07,2.7-0.1,4.03-0.1c6.75,0,13.45,0.95,19.95,2.83h-0.01
				c11.91,3.46,20.12,14.37,20.12,26.8C1551.95,841.88,1545.12,852.06,1534.68,856.37z"/>
			<path d="M2080.96,766.3c0.41-2.58,0.63-5.18,0.63-7.79c0-8.72-2.32-17.3-6.72-24.83c-4.46-7.62-11.44-13.47-19.75-16.52
				c-7.24-2.67-14.91-4.03-22.62-4.03h-7.89h-26.77v164.04h18.14v-72.2h10.99c2.93,0,5.85-0.14,8.78-0.39l37.59,72.59h18.94
				l-39.39-76.07C2067.67,795.35,2078.41,782.1,2080.96,766.3z M2032.98,789.08c-1.68,0.13-3.34,0.2-5.02,0.2c-0.24,0-0.48,0-0.72,0
				h-11.27v-59.65h12.29c3.37,0,6.74,0.17,10.1,0.53c12.16,1.24,22.07,10.37,24.3,22.39c0.36,1.89,0.53,3.8,0.53,5.72
				c0,8.78-3.68,17.16-10.19,23.07C2047.52,786.31,2040.37,789.08,2032.98,789.08z"/>
			<path d="M2303.72,795.62v16.74h48.08c0,29.88-29.61,50.36-57.73,50.36c-16.98,0-34.13-8.74-45.92-20.48
				c-12.04-12.18-18.91-28.38-18.91-45.56c0-36.64,29.2-67.88,66.12-67.88c23.81,0,42.06,11.41,55.58,30.61l13.14-12.29
				c-17.22-22.4-40.18-35.07-68.51-35.07c-46.57,0-84.39,37.87-84.39,84.42c0,45.34,37.83,83.01,83.33,83.01
				c22.53,0,45.07-9.87,59.88-27c14.88-17.06,17.25-34.99,16.83-56.86H2303.72z"/>
		</g>
		<path d="M2303.72,795.64v16.74h48.08c0,29.88-29.61,50.36-57.73,50.36c-16.98,0-34.13-8.74-45.92-20.48
			c-12.04-12.18-18.91-28.38-18.91-45.56c0-36.64,29.2-67.88,66.12-67.88c23.81,0,42.06,11.41,55.58,30.61l13.14-12.29
			c-17.22-22.4-40.18-35.07-68.51-35.07c-46.57,0-84.39,37.87-84.39,84.42c0,45.34,37.83,83.01,83.33,83.01
			c22.53,0,45.07-9.87,59.88-27c14.88-17.06,17.25-34.99,16.83-56.86H2303.72z"/>
	</g>
	<path d="M2658.21,725.15c-0.81,0-1.68,0.14-1.98-0.88c-2.57-8.58-13.06-24.79-38.18-24.79c-17.92,0-30.74,10.11-36.3,20.6
		c-0.09,0.17-0.39,0.51-0.91,0.32c-5.01-1.4-10.19-2.09-15.37-2.09c-5.18-0.01-10.36,0.69-15.37,2.09
		c-0.52,0.19-0.82-0.15-0.91-0.32c-5.56-10.5-18.38-20.6-36.3-20.6c-25.12,0-35.61,16.21-38.18,24.79
		c-0.31,1.02-1.17,0.88-1.98,0.88c-0.81,0-10.42,0-10.42,0v9.2c0,0,7.76,0,8.09,0c1.23,0,1.78-0.14,2.08,2.57
		c2.51,23.16,18.64,37.83,39.73,37.83c22.88,0,41.01-20.49,39.9-43.9c-0.08-1.68-0.43-2.35,0.52-2.57c4.39-1.16,8.39-1.7,12.84-1.7
		c4.45,0,8.45,0.54,12.84,1.7c0.95,0.22,0.6,0.89,0.52,2.57c-1.11,23.41,17.02,43.9,39.9,43.9c21.08,0,37.21-14.67,39.73-37.83
		c0.29-2.7,0.85-2.57,2.08-2.57c0.33,0,8.09,0,8.09,0v-9.2C2668.62,725.15,2659.01,725.15,2658.21,725.15z M2511.88,765.65
		c-20.91,0-30.21-17.83-30-30.58c0.24-14.5,11.97-26.32,30.93-26.5c18.8-0.18,29.55,13.59,29.55,25.89
		C2542.37,751.98,2528.18,765.65,2511.88,765.65z M2619.06,765.65c-16.3,0-30.48-13.67-30.48-31.19c0-12.3,10.75-26.07,29.55-25.89
		c18.96,0.18,30.69,12.01,30.93,26.5C2649.27,747.82,2639.97,765.65,2619.06,765.65z"/>
</g>
</svg>
